HIERARCHY
ROOT Hips
{
	OFFSET 0.000000 0.000000 0.000000
	CHANNELS 6 Xposition Yposition Zposition Zrotation Yrotation Xrotation 
	JOINT LHipJoint
	{
		OFFSET 0.000000 0.000000 0.000000
		CHANNELS 3 Zrotation Yrotation Xrotation
		JOINT LeftUpLeg
		{
			OFFSET 1.363060 -1.794630 0.839290
			CHANNELS 3 Zrotation Yrotation Xrotation
			JOINT LeftLeg
			{
				OFFSET 2.448110 -6.726130 0.000000
				CHANNELS 3 Zrotation Yrotation Xrotation
				JOINT LeftFoot
				{
					OFFSET 2.562200 -7.039590 0.000000
					CHANNELS 3 Zrotation Yrotation Xrotation
					JOINT LeftToeBase
					{
						OFFSET 0.157640 -0.433110 2.322550
						CHANNELS 3 Zrotation Yrotation Xrotation
						End Site
						{
							OFFSET 0.000000 0.000000 0.000000
						}
					}
				}
			}
		}
	}
	JOINT RHipJoint
	{
		OFFSET 0.000000 0.000000 0.000000
		CHANNELS 3 Zrotation Yrotation Xrotation
		JOINT RightUpLeg
		{
			OFFSET -1.305520 -1.794630 0.839290
			CHANNELS 3 Zrotation Yrotation Xrotation
			JOINT RightLeg
			{
				OFFSET -2.542530 -6.985550 0.000000
				CHANNELS 3 Zrotation Yrotation Xrotation
				JOINT RightFoot
				{
					OFFSET -2.568260 -7.056230 0.000000
					CHANNELS 3 Zrotation Yrotation Xrotation
					JOINT RightToeBase
					{
						OFFSET -0.164730 -0.452590 2.363150
						CHANNELS 3 Zrotation Yrotation Xrotation
						End Site
						{
							OFFSET 0.000000 0.000000 0.000000
						}
					}
				}
			}
		}
	}
}
MOTION
Frames: 27
Frame Time: 0.008333
3.701927 17.098301 -1.150422 158.154084 -82.913136 -150.818081 -10.857273 -0.937362 0.091619 1.877770 -1.482313 -29.528388 0.830859 1.911355 45.216098 4.188598 28.827675 17.412289 12.224900 0.000001 -49.733300 8.849280 -0.294903 -0.382980 9.722682 4.757432 -15.868694 1.506843 -1.289392 25.030953 -2.422614 -9.512416 -11.729838 0.274500 -0.000000 -50.852100
3.731694 17.099153 -1.190036 155.566258 -82.893665 -148.497847 -10.802336 -1.107202 0.151238 1.770832 -2.488755 -30.858445 0.911587 1.996144 47.862545 4.218800 28.997711 19.102875 12.962600 0.000001 -48.385300 8.918701 -0.259197 -0.452023 9.492615 4.787247 -15.664523 1.462068 -1.335507 25.218995 -2.459996 -9.696503 -11.817333 0.295000 0.000000 -50.665501
3.762369 17.099955 -1.228523 152.782819 -82.888279 -145.976539 -10.738331 -1.287024 0.194204 1.601426 -3.412573 -32.289387 0.984035 2.084053 50.556995 4.242389 29.088034 20.590795 13.572800 0.000000 -46.951000 9.003711 -0.222077 -0.519186 9.231171 4.784954 -15.495872 1.414750 -1.384314 25.433101 -2.497140 -9.880631 -11.909227 0.316900 -0.000000 -50.501500
3.793450 17.100805 -1.266023 149.815784 -82.892975 -143.263805 -10.664090 -1.474928 0.222832 1.367995 -4.244209 -33.822283 1.052982 2.175913 53.285979 4.263587 29.141664 21.867207 14.076300 0.000000 -45.737300 9.107085 -0.184498 -0.584692 8.938062 4.724674 -15.369120 1.367294 -1.434517 25.665819 -2.527753 -10.035621 -11.999328 0.339001 -0.000000 -50.387300
3.824677 17.101636 -1.302143 146.827750 -82.902472 -140.521915 -10.585428 -1.666412 0.233839 1.086635 -4.938438 -35.479141 1.123730 2.280588 56.074276 4.279049 29.126421 22.818237 14.409300 0.000000 -44.223000 9.221854 -0.147970 -0.646192 8.637966 4.603841 -15.280676 1.322572 -1.482607 25.902681 -2.549194 -10.149536 -12.080301 0.359300 0.000000 -50.318800
3.855550 17.102755 -1.337396 143.745537 -82.912833 -137.672643 -10.497008 -1.862820 0.235861 0.750048 -5.524965 -37.241802 1.199822 2.391180 58.870111 4.298846 29.146262 23.564533 14.685300 -0.000000 -43.392900 9.353771 -0.112517 -0.706113 8.316018 4.391291 -15.238487 1.281923 -1.528235 26.136913 -2.554752 -10.190911 -12.145828 0.376200 0.000000 -50.333500
3.885762 17.104223 -1.371561 140.681784 -82.921556 -134.826774 -10.403225 -2.061040 0.227643 0.372007 -5.980771 -39.122687 1.285708 2.513391 61.682121 4.319188 29.165244 24.034506 14.856400 -0.000000 -42.630000 9.495996 -0.079379 -0.762870 7.990062 4.089932 -15.237672 1.247092 -1.568714 26.354771 -2.543567 -10.155701 -12.189316 0.387800 -0.000000 -50.432400
3.915301 17.106151 -1.404798 137.650848 -82.925666 -131.998877 -10.303053 -2.261401 0.212697 -0.042242 -6.319095 -41.114190 1.383324 2.645349 64.482575 4.342511 29.209192 24.280619 14.960201 0.000000 -42.127900 9.646820 -0.048317 -0.817537 7.661666 3.696724 -15.275480 1.218691 -1.603203 26.548974 -2.514439 -10.037727 -12.207329 0.393200 -0.000000 -50.618801
3.944019 17.108624 -1.437116 134.688530 -82.923994 -129.223532 -10.196996 -2.463606 0.192617 -0.483961 -6.549744 -43.211119 1.494266 2.786949 67.253687 4.367906 29.268688 24.327185 15.000700 0.000000 -41.844300 9.802149 -0.019355 -0.870471 7.337347 3.220759 -15.345242 1.196869 -1.630970 26.713115 -2.468661 -9.842370 -12.197798 0.391900 0.000000 -50.887900
3.971821 17.111724 -1.468704 131.790206 -82.913634 -126.494471 -10.082663 -2.667322 0.170068 -0.950613 -6.692562 -45.405785 1.618783 2.936136 69.971884 4.394384 29.333965 24.218378 14.988700 0.000000 -41.733200 9.961344 0.008395 -0.921178 7.014823 2.673425 -15.444561 1.180671 -1.652251 26.847782 -2.408393 -9.578524 -12.162685 0.384401 -0.000000 -51.232900
3.999125 17.115328 -1.499276 129.012503 -82.896944 -123.875712 -9.963302 -2.873519 0.143377 -1.425225 -6.761988 -47.681905 1.756553 3.093386 72.621540 4.419237 29.377830 23.992139 14.920700 -0.000000 -41.710100 10.115960 0.035399 -0.973442 6.708983 2.080472 -15.549806 1.169583 -1.667130 26.945806 -2.338686 -9.270732 -12.100111 0.371000 0.000000 -51.634800
4.025915 17.119441 -1.529015 126.325889 -82.871648 -121.339327 -9.835847 -3.081658 0.113729 -1.907928 -6.782564 -50.025651 1.906323 3.256044 75.183169 4.440200 29.380759 23.698585 14.804201 0.000000 -41.713900 10.266970 0.063314 -1.027978 6.413705 1.457825 -15.654353 1.161841 -1.676891 27.013374 -2.263137 -8.934831 -12.017222 0.353800 -0.000000 -52.087400
4.052520 17.123920 -1.557772 123.735967 -82.838658 -118.898471 -9.700994 -3.291880 0.079558 -2.390938 -6.774735 -52.415568 2.066319 3.422767 77.642733 4.454778 29.322660 23.383865 14.644600 0.000000 -41.739400 10.410963 0.093425 -1.088576 6.132067 0.827000 -15.737492 1.156003 -1.682646 27.050618 -2.186432 -8.593773 -11.917076 0.333799 0.000000 -52.581000
4.078835 17.128723 -1.585840 121.215871 -82.790062 -116.527566 -9.554673 -3.502487 0.042894 -2.880266 -6.760682 -54.841107 2.234054 3.590498 79.986585 4.462069 29.200276 23.092554 14.458800 -0.000001 -41.786400 10.551415 0.128070 -1.152651 5.850566 0.207878 -15.801107 1.149239 -1.685836 27.070721 -2.111992 -8.262860 -11.809172 0.313300 -0.000000 -53.101200
4.105032 17.133694 -1.613088 118.768461 -82.725509 -114.237116 -9.397930 -3.712652 0.001999 -3.371640 -6.755461 -57.281625 2.407442 3.758072 82.208964 4.460624 29.005264 22.852265 14.253000 0.000000 -41.839100 10.686520 0.168380 -1.223484 5.568543 -0.384999 -15.827603 1.140270 -1.687470 27.075428 -2.043060 -7.958301 -11.698306 0.293300 0.000000 -53.648600
4.131027 17.138757 -1.639463 116.392011 -82.643638 -112.029591 -9.231524 -3.921040 -0.043620 -3.863466 -6.771489 -59.720662 2.584618 3.924193 84.307082 4.450127 28.739126 22.676589 14.033400 -0.000000 -41.879500 10.815746 0.215041 -1.302790 5.282722 -0.942874 -15.806961 1.128119 -1.688389 27.068737 -1.981582 -7.689479 -11.590603 0.275101 0.000000 -54.222500
4.156643 17.143849 -1.665170 114.074460 -82.537597 -109.895081 -9.053500 -4.125080 -0.092124 -4.362511 -6.820356 -62.148546 2.763142 4.086716 86.277223 4.432259 28.421799 22.577510 13.817100 0.000000 -41.972500 10.942561 0.269283 -1.389034 4.980581 -1.464565 -15.743151 1.111584 -1.689362 27.059647 -1.927412 -7.454908 -11.492636 0.259400 0.000000 -54.827200
4.182048 17.148810 -1.689777 111.833383 -82.414741 -107.859540 -8.869736 -4.325159 -0.145647 -4.855743 -6.902130 -64.549214 2.942848 4.246179 88.125378 4.406349 28.047274 22.528310 13.588700 0.000001 -42.047800 11.061466 0.329311 -1.487056 4.672664 -1.951971 -15.618376 1.091922 -1.690559 27.040762 -1.880916 -7.257653 -11.403001 0.246100 0.000000 -55.495300
4.206436 17.153760 -1.713678 109.665835 -82.265025 -105.911385 -8.676896 -4.517420 -0.198728 -5.354770 -7.024521 -66.925514 3.121739 4.400508 89.849077 4.376125 27.651054 22.521729 13.366800 0.000000 -42.179700 11.178119 0.395483 -1.591714 4.342119 -2.416700 -15.454167 1.068965 -1.692092 27.023686 -1.838903 -7.079388 -11.329023 0.235800 0.000000 -56.216900
4.229703 17.158602 -1.736747 107.589772 -82.091147 -104.069907 -8.478186 -4.701341 -0.249877 -5.852050 -7.184341 -69.274788 3.299578 4.549829 91.451835 4.342699 27.241766 22.524420 13.143200 0.000000 -42.349500 11.290224 0.465911 -1.703555 3.993009 -2.869990 -15.252616 1.044475 -1.693753 27.005841 -1.799103 -6.908384 -11.270268 0.228100 -0.000000 -57.011700
4.251359 17.163401 -1.759022 105.626385 -81.891953 -102.350121 -8.274557 -4.875173 -0.295424 -6.345431 -7.379123 -71.600882 3.475883 4.693865 92.934306 4.307718 26.832726 22.505378 12.914399 -0.000000 -42.542201 11.398179 0.538912 -1.820557 3.623089 -3.327221 -15.026338 1.020107 -1.695167 26.988088 -1.758048 -6.725935 -11.226836 0.222800 0.000000 -57.894100
4.271213 17.168127 -1.780628 103.797536 -81.666401 -100.770589 -8.066798 -5.037656 -0.332233 -6.831446 -7.603609 -73.909984 3.650175 4.832614 94.296280 4.272358 26.433155 22.433282 12.675300 0.000000 -42.702000 11.502285 0.613220 -1.940660 3.230500 -3.802654 -14.789435 0.997610 -1.696040 26.972460 -1.712315 -6.513026 -11.200245 0.219500 0.000000 -58.855400
4.289256 17.172766 -1.801016 102.146773 -81.426349 -99.371834 -7.861545 -5.192200 -0.358465 -7.284633 -7.845180 -76.205506 3.821853 4.966911 95.537537 4.236424 26.037212 22.295218 12.418200 -0.000000 -42.953900 11.594170 0.684421 -2.064160 2.835308 -4.296985 -14.542069 0.979716 -1.695760 26.948696 -1.661244 -6.266639 -11.183574 0.217100 0.000000 -59.919300
4.305004 17.177396 -1.820759 100.692062 -81.162289 -98.162615 -7.655037 -5.334661 -0.371216 -7.714453 -8.098572 -78.496631 3.989703 5.096514 96.654960 4.200358 25.649637 22.068817 12.139700 0.000000 -43.090200 11.680188 0.753566 -2.186633 2.421404 -4.824726 -14.306716 0.966858 -1.694333 26.926976 -1.600913 -5.963747 -11.181976 0.215700 -0.000001 -61.052900
4.318692 17.181942 -1.839739 99.464965 -80.879214 -97.174213 -7.450277 -5.466718 -0.370448 -8.106550 -8.350582 -80.786181 4.152082 5.222050 97.646635 4.163257 25.261179 21.756767 11.836500 0.000000 -43.117500 11.756810 0.819012 -2.307142 1.997396 -5.381606 -14.086716 0.960158 -1.691705 26.904679 -1.531241 -5.603285 -11.192605 0.214301 0.000000 -62.247000
4.330338 17.186397 -1.857849 98.491699 -80.580804 -96.428585 -7.249259 -5.589423 -0.356802 -8.450495 -8.588959 -83.074780 4.306704 5.344020 98.510925 4.124539 24.866397 21.378524 11.513601 0.000000 -43.073300 11.821825 0.879730 -2.424874 1.568897 -5.960765 -13.883482 0.960154 -1.687962 26.880816 -1.452750 -5.186971 -11.214039 0.212400 0.000000 -63.478700
4.340216 17.190707 -1.875283 97.788818 -80.265690 -95.943369 -7.052002 -5.702396 -0.332514 -8.745555 -8.800708 -85.361665 4.451637 5.463063 99.249367 4.083134 24.457539 20.948719 11.172400 -0.000000 -42.876099 11.876300 0.936519 -2.537712 1.134018 -6.550552 -13.699917 0.965911 -1.683571 26.859427 -1.366644 -4.720217 -11.246117 0.209400 -0.000001 -64.722600
